HIERARCHY
ROOT Hips
{
	OFFSET 0.000000 0.000000 0.000000
	CHANNELS 6 Xposition Yposition Zposition Xrotation Yrotation Zrotation
	JOINT LeftUpLeg_virtual
	{
		OFFSET 0.000000 0.000000 0.000000
		CHANNELS 3 Xrotation Yrotation Zrotation
		JOINT LeftUpLeg
		{
			OFFSET 10.205400 -3.823500 0.155100
			CHANNELS 3 Xrotation Yrotation Zrotation
			JOINT LeftLeg
			{
				OFFSET 0.708757 -12.982077 0.567790
				CHANNELS 3 Xrotation Yrotation Zrotation
				JOINT LeftFoot
				{
					OFFSET -0.708756 -10.717838 -2.184338
					CHANNELS 3 Xrotation Yrotation Zrotation
					JOINT LeftToeBase
					{
						OFFSET 0.108149 -7.191104 7.560241
						CHANNELS 3 Xrotation Yrotation Zrotation
						JOINT LeftToe_End
						{
							OFFSET 0.070230 0.081724 4.490308
							CHANNELS 3 Xrotation Yrotation Zrotation
							End Site
							{
								OFFSET 0 0 0
							}
						}
					}
				}
			}
		}
	}
	JOINT RightUpLeg_virtual
	{
		OFFSET 0.000000 0.000000 0.000000
		CHANNELS 3 Xrotation Yrotation Zrotation
		JOINT RightUpLeg
		{
			OFFSET -10.205400 -3.823500 0.005500
			CHANNELS 3 Xrotation Yrotation Zrotation
			JOINT RightLeg
			{
				OFFSET -0.708756 -12.982134 0.610632
				CHANNELS 3 Xrotation Yrotation Zrotation
				JOINT RightFoot
				{
					OFFSET 0.708754 -10.717769 -1.945823
					CHANNELS 3 Xrotation Yrotation Zrotation
					JOINT RightToeBase
					{
						OFFSET -0.108140 -7.191069 7.372968
						CHANNELS 3 Xrotation Yrotation Zrotation
						JOINT RightToe_End
						{
							OFFSET -0.070227 0.081735 4.479403
							CHANNELS 3 Xrotation Yrotation Zrotation
							End Site
							{
								OFFSET 0 0 0
							}
						}
					}
				}
			}
		}
	}
	JOINT Spine_virtual
	{
		OFFSET 0.000000 0.000000 0.000000
		CHANNELS 3 Xrotation Yrotation Zrotation
		JOINT Spine
		{
			OFFSET 0.000000 6.876099 0.125700
			CHANNELS 3 Xrotation Yrotation Zrotation
			JOINT Spine1
			{
				OFFSET 0.000000 5.730043 0.104720
				CHANNELS 3 Xrotation Yrotation Zrotation
				JOINT Spine1_split
				{
					OFFSET 0.000000 5.730043 0.104720
					CHANNELS 3 Xrotation Yrotation Zrotation
					JOINT Spine2
					{
						OFFSET 0.000000 5.730043 0.104720
						CHANNELS 3 Xrotation Yrotation Zrotation
						JOINT Neck_virtual
						{
							OFFSET 0.000000 0.000000 0.000000
							CHANNELS 3 Xrotation Yrotation Zrotation
							JOINT Neck
							{
								OFFSET 0.000000 10.314075 0.188496
								CHANNELS 3 Xrotation Yrotation Zrotation
								JOINT Head
								{
									OFFSET 0.000000 7.643700 -2.377400
									CHANNELS 3 Xrotation Yrotation Zrotation
									JOINT HeadTop_End
									{
										OFFSET 0.000000 43.788605 -13.619600
										CHANNELS 3 Xrotation Yrotation Zrotation
										End Site
										{
											OFFSET 0 0 0
										}
									}
								}
							}
						}
						JOINT LeftShoulder_virtual
						{
							OFFSET 0.000000 0.000000 0.000000
							CHANNELS 3 Xrotation Yrotation Zrotation
							JOINT LeftShoulder
							{
								OFFSET 2.196100 4.412489 0.087492
								CHANNELS 3 Xrotation Yrotation Zrotation
								JOINT LeftShoulder_split
								{
									OFFSET 2.196100 4.412489 0.087492
									CHANNELS 3 Xrotation Yrotation Zrotation
									JOINT LeftArm
									{
										OFFSET 8.771219 -2.981674 -0.026999
										CHANNELS 3 Xrotation Yrotation Zrotation
										JOINT LeftForeArm
										{
											OFFSET 8.512804 0.000000 -0.000000
											CHANNELS 3 Xrotation Yrotation Zrotation
											JOINT LeftHand
											{
												OFFSET 18.484802 0.000000 -0.000000
												CHANNELS 3 Xrotation Yrotation Zrotation
												End Site
												{
													OFFSET 0 0 0
												}
											}
										}
									}
								}
							}
						}
						JOINT RightShoulder_virtual
						{
							OFFSET 0.000000 0.000000 0.000000
							CHANNELS 3 Xrotation Yrotation Zrotation
							JOINT RightShoulder
							{
								OFFSET -2.196100 4.412496 0.070690
								CHANNELS 3 Xrotation Yrotation Zrotation
								JOINT RightShoulder_split
								{
									OFFSET -2.196100 4.412496 0.070690
									CHANNELS 3 Xrotation Yrotation Zrotation
									JOINT RightArm
									{
										OFFSET -8.771282 -2.981682 -0.094208
										CHANNELS 3 Xrotation Yrotation Zrotation
										JOINT RightForeArm
										{
											OFFSET -8.494598 0.000000 0.000000
											CHANNELS 3 Xrotation Yrotation Zrotation
											JOINT RightHand
											{
												OFFSET -18.483803 0.000000 0.000001
												CHANNELS 3 Xrotation Yrotation Zrotation
												End Site
												{
													OFFSET 0 0 0
												}
											}
										}
									}
								}
							}
						}
					}
				}
			}
		}
	}
}
MOTION
Frames: 9
Frame Time: 0.03333333
0.277843 27.492903 2.102982 0.000000 0.000000 0.000000 -2.005425 -46.156373 3.188471 -32.612664 11.586285 21.037963 59.197407 -11.554565 -3.145003 -36.504574 -7.745469 -12.821122 -2.025796 -0.686937 1.199692 0.000000 0.000000 0.000000 -3.286540 -44.286970 3.720446 -15.635649 -11.506251 -39.889555 58.220389 -5.679215 -12.161943 -31.007573 -12.842403 30.054584 -3.258264 -0.196829 -0.169301 0.000000 0.000000 0.000000 -1.434733 -46.446598 4.310423 9.045557 12.204921 -2.821916 0.544090 3.926447 -1.714777 0.419985 -1.838975 1.295288 0.000000 0.000000 0.000000 1.784703 4.047238 -1.723842 -8.665339 11.773918 3.907322 6.375001 17.131870 0.859321 0.000000 0.000000 0.000000 1.557070 4.115775 -1.357565 0.747289 0.202776 -4.479014 -0.562342 -3.905892 1.262501 6.242412 1.241756 -38.921901 178.368969 -49.323579 178.902544 0.000000 0.000000 0.000000 1.357965 3.746477 -1.594203 1.474570 13.192400 -4.683064 -6.829002 -1.111866 2.656364 -59.977421 20.337855 64.699015 -166.065408 79.093099 164.867912 0.000000 0.000000 0.000000 
0.480893 27.510004 2.063019 0.000000 0.000000 0.000000 -1.866763 -51.213380 2.725782 -30.733635 11.481401 21.646376 58.987665 -10.455947 -4.307151 -39.207745 -4.084551 -11.495590 -2.358542 -0.736743 1.604565 0.000000 0.000000 0.000000 -2.958063 -48.616726 3.420598 -18.229206 -7.445293 -38.864644 58.909685 -4.001852 -13.344802 -30.541461 -10.796306 30.565506 -3.112374 0.064675 -0.550841 0.000000 0.000000 0.000000 -0.913488 -50.257509 4.276596 9.236896 11.624726 -1.981001 0.879944 3.800135 -1.665961 0.463577 -1.659329 1.207664 0.000000 0.000000 0.000000 2.138825 3.957491 -1.641842 -8.886634 12.858164 3.619134 5.470942 20.215973 -0.887858 0.000000 0.000000 0.000000 1.631511 4.028317 -1.246225 0.961018 0.694241 -2.485571 0.167438 -4.493783 0.340684 2.130639 5.613793 -33.953123 178.780529 -53.852968 179.169755 0.000000 0.000000 0.000000 1.412287 3.642804 -1.467474 1.223622 10.663977 -2.761191 -5.992264 -1.272125 2.980542 -60.942670 23.096905 69.921213 -172.364523 74.431126 171.036297 0.000000 0.000000 0.000000 
0.620577 27.471956 2.016647 0.000000 0.000000 0.000000 -1.649068 -56.310812 1.939857 -29.330185 10.443013 22.561551 59.803948 -9.335522 -4.551911 -41.658850 -0.553932 -10.218884 -2.448175 -0.726329 1.684414 0.000000 0.000000 0.000000 -2.681578 -52.732394 2.656255 -20.397701 -4.551695 -36.890996 58.718494 -2.570549 -14.284299 -30.486239 -9.050599 30.683894 -3.047653 0.416942 -0.889459 0.000000 0.000000 0.000000 -0.168945 -53.766252 3.814245 9.368197 10.504334 -1.342687 1.220287 3.218477 -1.612717 0.787428 -1.484046 1.085106 0.000000 0.000000 0.000000 2.455337 3.303247 -1.513080 -9.053213 14.277945 3.355383 4.903399 23.446619 -2.820228 0.000000 0.000000 0.000000 1.782784 3.373495 -1.171511 1.091712 1.044209 -0.135418 0.152597 -3.150681 -0.570032 -6.596100 6.000597 -26.470799 178.720929 -66.083685 179.159919 0.000000 0.000000 0.000000 1.549622 3.035597 -1.442580 0.985817 9.039501 -1.186837 -5.328968 -1.997764 2.954728 -61.342018 25.948129 74.288218 -176.183241 70.266507 174.583884 0.000000 0.000000 0.000000 
0.683172 27.420387 1.885315 0.000000 0.000000 0.000000 -1.593847 -60.057273 0.840563 -28.789148 8.587657 23.585514 61.358519 -8.582386 -3.823134 -43.305322 2.329345 -9.672200 -2.237286 -0.652855 1.539913 0.000000 0.000000 0.000000 -2.710662 -55.793698 1.397998 -21.542318 -3.394056 -34.389907 57.707667 -1.880361 -14.825144 -31.020773 -7.919088 30.035958 -2.891386 0.776958 -0.941147 0.000000 0.000000 0.000000 0.461543 -56.288296 2.918421 9.422447 8.831001 -0.905586 1.451752 2.178214 -1.596729 1.170358 -1.179537 0.798603 0.000000 0.000000 0.000000 2.589656 2.099230 -1.461917 -8.989799 15.835064 3.203093 5.125646 26.474824 -4.805713 0.000000 0.000000 0.000000 2.162012 2.144731 -1.223956 1.181058 1.113432 2.024393 -0.829038 -0.411660 -1.292159 -17.491327 1.494485 -19.133407 172.620737 -85.803527 173.134968 0.000000 0.000000 0.000000 1.746245 1.907201 -1.537341 0.798420 8.328278 0.027459 -5.353674 -2.713397 2.461998 -59.670056 28.916323 77.376030 -178.604379 66.337147 176.620646 0.000000 0.000000 0.000000 
0.670901 27.374664 1.755384 0.000000 0.000000 0.000000 -1.755337 -61.425237 -0.456351 -29.128592 6.504731 24.306125 63.075622 -8.290109 -2.345204 -43.656640 4.160821 -10.166089 -2.162250 -0.505139 1.401802 0.000000 0.000000 0.000000 -3.011302 -57.154333 -0.089197 -21.427823 -3.976226 -32.047466 56.383963 -2.110281 -15.006583 -31.843295 -7.499376 28.881421 -2.901269 1.071557 -0.646121 0.000000 0.000000 0.000000 0.937354 -57.483214 1.853136 9.346791 6.865257 -0.698553 1.553365 0.927617 -1.675658 1.280607 -0.942300 0.279104 0.000000 0.000000 0.000000 2.500065 0.667168 -1.562907 -8.796135 17.159392 3.183892 5.969852 28.788373 -6.456660 0.000000 0.000000 0.000000 2.712787 0.625533 -1.376119 1.235238 1.076605 3.468606 -2.433673 2.332984 -1.543577 -26.577593 -5.915373 -15.015898 2.816575 -72.498046 3.187521 0.000000 0.000000 0.000000 2.024270 0.553079 -1.747410 0.727895 8.660026 0.817656 -6.082526 -2.746631 2.170645 -54.897386 32.000474 78.179028 -179.663850 62.106815 177.316956 0.000000 0.000000 0.000000 
0.617405 27.354712 1.667885 0.000000 0.000000 0.000000 -1.656838 -60.228041 -1.367761 -30.363801 4.786656 24.424125 64.584636 -8.278392 -0.530205 -42.696066 4.707450 -11.321331 -2.440736 -0.336907 1.375124 0.000000 0.000000 0.000000 -3.282681 -56.540709 -1.312687 -20.250346 -5.833419 -30.466701 55.321076 -3.058184 -14.975236 -32.466140 -7.788815 27.927283 -3.152456 1.259977 -0.183114 0.000000 0.000000 0.000000 1.183671 -56.935583 0.964537 9.204068 5.063960 -0.722834 1.562821 -0.094724 -1.853638 1.021714 -0.446021 -0.091932 0.000000 0.000000 0.000000 2.193994 -0.516061 -1.794269 -8.589055 17.798438 3.250934 7.014156 29.539752 -7.240408 0.000000 0.000000 0.000000 3.298276 -0.704941 -1.590472 1.201628 1.307108 4.125691 -4.244138 3.722752 -2.193232 -32.249117 -12.976194 -15.660268 2.455174 -57.826984 2.453276 0.000000 0.000000 0.000000 2.347873 -0.607386 -2.034010 0.795856 10.084572 0.872245 -6.870910 -2.620902 2.485611 -46.835755 34.791652 75.745514 -179.798159 57.168875 177.189437 0.000000 0.000000 0.000000 
0.538399 27.350109 1.636845 0.000000 0.000000 0.000000 -1.312776 -56.791701 -1.636885 -32.325199 3.973781 23.785051 65.771348 -8.204534 1.171499 -40.906259 3.760237 -12.152676 -3.109290 -0.184286 1.481552 0.000000 0.000000 0.000000 -3.148755 -53.887508 -1.762326 -18.444560 -8.439761 -29.887579 54.919902 -4.356836 -14.886297 -32.919767 -8.721208 27.689396 -3.220479 1.359408 0.159842 0.000000 0.000000 0.000000 1.148035 -54.644416 0.423231 9.180795 3.899449 -1.014045 1.558193 -0.522278 -2.074677 0.785935 0.160042 -0.201633 0.000000 0.000000 0.000000 1.837060 -1.020201 -2.097193 -8.555007 17.453701 3.260440 7.856997 28.282775 -6.769028 0.000000 0.000000 0.000000 3.697634 -1.296397 -1.809832 0.994461 1.861866 3.751539 -4.562664 3.569098 -3.067251 -34.201568 -17.614610 -20.692348 3.076939 -55.256794 2.593192 0.000000 0.000000 0.000000 2.647901 -1.119411 -2.290555 1.047066 12.372340 0.216201 -7.499693 -2.428264 3.394497 -37.008417 36.082336 69.657479 -179.323857 52.288383 176.786046 0.000000 0.000000 0.000000 
0.457652 27.307764 1.741415 0.000000 0.000000 0.000000 -0.707182 -52.206851 -1.219893 -34.697361 4.233276 22.525841 66.697036 -7.872599 2.513860 -38.801045 1.541539 -11.984146 -3.776835 -0.064251 1.603979 0.000000 0.000000 0.000000 -2.600421 -49.627075 -1.390095 -16.495865 -11.360082 -30.273751 55.228414 -5.637371 -14.800933 -33.450230 -10.150416 28.185949 -2.915103 1.430774 0.162749 0.000000 0.000000 0.000000 1.090833 -50.874285 0.433852 9.320306 3.784579 -1.569261 1.601042 -0.081506 -2.284857 0.724020 0.207556 -0.004435 0.000000 0.000000 0.000000 1.641647 -0.602889 -2.318279 -8.831891 16.063387 3.093105 8.138759 24.742775 -4.987445 0.000000 0.000000 0.000000 3.740618 -0.844110 -1.967610 0.629668 2.550956 2.585898 -3.858744 2.070257 -4.071290 -31.929762 -19.606031 -28.371778 3.945885 -64.399067 3.294784 0.000000 0.000000 0.000000 2.906927 -0.697913 -2.458606 1.474580 15.346523 -1.381695 -7.521076 -2.247583 4.378919 -28.482891 34.704621 60.942151 -178.616045 49.668873 176.515652 0.000000 0.000000 0.000000 
0.392845 27.224134 1.936214 0.000000 0.000000 0.000000 -0.066206 -47.281158 -0.289482 -37.171016 5.322283 20.919944 67.495868 -7.359058 3.478997 -37.018437 -1.498674 -10.677374 -4.075500 0.002708 1.599819 0.000000 0.000000 0.000000 -1.960956 -44.586795 -0.483144 -14.643876 -14.382403 -31.269593 56.009696 -6.884805 -14.585749 -34.259481 -11.949862 28.891444 -2.054131 1.503932 -0.176627 0.000000 0.000000 0.000000 0.909440 -46.260557 0.844751 9.650834 4.921534 -2.335656 1.691614 1.185552 -2.374334 0.750832 0.068222 0.497004 0.000000 0.000000 0.000000 1.619222 0.670179 -2.371713 -9.496073 13.854052 2.666273 8.026911 19.156879 -2.320008 0.000000 0.000000 0.000000 3.408504 0.588974 -2.037025 0.252564 2.987990 0.973258 -2.059531 0.002297 -4.546687 -26.270868 -20.401543 -37.071777 6.718256 -79.723293 6.318080 0.000000 0.000000 0.000000 3.058330 0.622910 -2.475882 2.066929 18.593237 -3.740523 -7.032026 -2.034150 4.840880 -24.518561 30.919816 51.703572 -177.689871 51.866384 176.288371 0.000000 0.000000 0.000000 
